<svg id="Capa_1" data-name="Capa 1" xmlns="http://www.w3.org/2000/svg" viewBox="0 0 21 21.67"><defs><style>.cls-1{fill:#f7ce65;}</style></defs><title>dungeons-and-dragons-icon (1)</title><path class="cls-1" d="M9.7,6.1A4.52,4.52,0,0,0,8,9.8C8,14.1,7.7,16,6.9,16c-1.1,0-1.6,4.5-.8,6.9a7.14,7.14,0,0,0,3.6,3.2c2.2.8,3.2.6,5.4-1.1,3.4-2.4,3.9-2.5,3.9-.4,0,.8.4,1.3.9.9a1.22,1.22,0,0,1,1.6.5c1.1,1.7,3.1,1.1,4.4-1.4,1.7-3.1.5-5.5-1.5-2.9-1.2,1.7-1.3,1.7-1.4.1,0-1.1-.5-1.5-1.4-1.2a1.81,1.81,0,0,1-2.1-.6c-1-1.7,2.4-5,5.2-5,1.4,0,2.1-.4,1.8-1-1.1-1.8-4.5-1.1-6.9,1.5s-4.3,3.4-3.1,1.5a3.38,3.38,0,0,0-.3-2.7,3.19,3.19,0,0,1,.1-3.5C18.6,7.1,13.8,3.7,9.7,6.1Zm4.2,3.8c-.3.6-1,.7-1.8.2A1.64,1.64,0,0,1,11.5,8C12.4,6.6,14.4,8.2,13.9,9.9ZM13.1,19c.4,0,.5-1,.1-2.2-.4-1.5-.2-1.9.7-1.4.7.5,1,1,.7,1.3s-.1,1.4.4,2.3a2.1,2.1,0,0,1-.5,3c-2.7,2.2-4.4.5-4.2-4.2.1-4.1.2-4.2,1.1-1.6C12,17.8,12.7,19,13.1,19Z" transform="translate(-5.71 -5.3)"/></svg>