<svg id="Capa_1" data-name="Capa 1" xmlns="http://www.w3.org/2000/svg" viewBox="0 0 49.58 49.93"><defs><style>.cls-1{fill:#f7ce65;}</style></defs><title>hammer-icon (1)</title><path class="cls-1" d="M11.6,8.9c-7.9,8-8.7,9.1-7.7,11C4.6,21,5.4,22,5.8,22s5-4.2,10.1-9.4C24,4.4,25.2,2.9,24,1.6A4,4,0,0,0,21.6,0C21,0,16.5,4,11.6,8.9Z" transform="translate(-0.07 0)"/><path class="cls-1" d="M17.2,14.3,9,22.5l9.3,9.3L27.5,41,36,32.5,44.5,24l-9-9c-4.9-5-9.2-9-9.5-9S21.8,9.7,17.2,14.3Zm14.6,4.9c1.9,1.9,1.4,2.8-1.3,2.8s-3.3,1.4-1.3,2.6c1.6,1-1.7,2.3-6.2,2.3H19.5l3.4-1.5c3.3-1.4,3.4-1.6,1.8-3.2s-1.6-1.7,1.5-2.9C30.5,17.8,30.4,17.8,31.8,19.2Z" transform="translate(-0.07 0)"/><path class="cls-1" d="M37,34.5c-9,9.1-9.4,9.7-7.6,11.1A9.69,9.69,0,0,0,32,47c.3,0,4.6-4.1,9.5-9,7.5-7.5,8.8-9.3,7.9-10.7a6.23,6.23,0,0,0-2-2C46.9,25.1,42.2,29.3,37,34.5Z" transform="translate(-0.07 0)"/><path class="cls-1" d="M9.3,33.8c-2.3,2-5.4,4.7-7,5.9C-.4,41.8-.4,42,1,44.7A14.69,14.69,0,0,0,5.3,49c2.7,1.4,2.9,1.4,5-1.3,1.2-1.5,3.9-4.7,5.9-7.1l3.7-4.3-3.2-3.1-3.2-3.1Z" transform="translate(-0.07 0)"/></svg>